{
    "asset" : {
        "generator" : "Khronos glTF Blender I/O v1.7.33",
        "version" : "2.0"
    },
    "scene" : 0,
    "scenes" : [
        {
            "name" : "Scene",
            "nodes" : [
                0,
                1,
                2,
                3,
                4,
                5,
                6
            ]
        }
    ],
    "nodes" : [
        {
            "mesh" : 0,
            "name" : "torso",
            "scale" : [
                0.40200382471084595,
                0.40200382471084595,
                0.32212120294570923
            ],
            "translation" : [
                0,
                2.021110773086548,
                0
            ]
        },
        {
            "mesh" : 1,
            "name" : "head",
            "scale" : [
                0.40200382471084595,
                0.40200382471084595,
                0.40200382471084595
            ],
            "translation" : [
                0,
                3.4937126636505127,
                0
            ]
        },
        {
            "mesh" : 2,
            "name" : "head2",
            "scale" : [
                0.40200382471084595,
                0.40200382471084595,
                0.40200382471084595
            ],
            "translation" : [
                0,
                3.4937126636505127,
                0
            ]
        },
        {
            "mesh" : 3,
            "name" : "legs",
            "scale" : [
                0.40200382471084595,
                0.40200382471084595,
                0.16524480283260345
            ],
            "translation" : [
                0,
                1.2245948314666748,
                0
            ]
        },
        {
            "mesh" : 4,
            "name" : "hat1",
            "translation" : [
                0.0006894767284393311,
                4.8664445877075195,
                0.0032015442848205566
            ]
        },
        {
            "mesh" : 5,
            "name" : "boots",
            "scale" : [
                0.43876639008522034,
                0.43876639008522034,
                0.18035615980625153
            ],
            "translation" : [
                0,
                1.2245948314666748,
                0
            ]
        },
        {
            "mesh" : 6,
            "name" : "cape",
            "rotation" : [
                -0.6958533525466919,
                0,
                0,
                0.7181839942932129
            ],
            "translation" : [
                -0.005817025899887085,
                1.930991291999817,
                -0.4353252053260803
            ]
        }
    ],
    "materials" : [
        {
            "doubleSided" : true,
            "name" : "Skin",
            "pbrMetallicRoughness" : {
                "baseColorTexture" : {
                    "index" : 0
                },
                "metallicFactor" : 0,
                "roughnessFactor" : 0.5
            }
        },
        {
            "doubleSided" : true,
            "name" : "Material.001",
            "pbrMetallicRoughness" : {
                "baseColorTexture" : {
                    "index" : 1
                },
                "metallicFactor" : 0,
                "roughnessFactor" : 0.5
            }
        },
        {
            "doubleSided" : true,
            "name" : "Material",
            "pbrMetallicRoughness" : {
                "baseColorTexture" : {
                    "index" : 2
                },
                "metallicFactor" : 0,
                "roughnessFactor" : 0.5
            }
        }
    ],
    "meshes" : [
        {
            "name" : "Cube",
            "primitives" : [
                {
                    "attributes" : {
                        "POSITION" : 0,
                        "NORMAL" : 1,
                        "TEXCOORD_0" : 2
                    },
                    "indices" : 3,
                    "material" : 0
                }
            ]
        },
        {
            "name" : "Cube.001",
            "primitives" : [
                {
                    "attributes" : {
                        "POSITION" : 4,
                        "NORMAL" : 5,
                        "TEXCOORD_0" : 6
                    },
                    "indices" : 7,
                    "material" : 0
                }
            ]
        },
        {
            "name" : "Cube.002",
            "primitives" : [
                {
                    "attributes" : {
                        "POSITION" : 8,
                        "NORMAL" : 9,
                        "TEXCOORD_0" : 10
                    },
                    "indices" : 11,
                    "material" : 0
                }
            ]
        },
        {
            "name" : "Cube.003",
            "primitives" : [
                {
                    "attributes" : {
                        "POSITION" : 12,
                        "NORMAL" : 13,
                        "TEXCOORD_0" : 14,
                        "COLOR_0" : 15
                    },
                    "indices" : 16,
                    "material" : 0
                }
            ]
        },
        {
            "name" : "Cylinder",
            "primitives" : [
                {
                    "attributes" : {
                        "POSITION" : 17,
                        "NORMAL" : 18,
                        "TEXCOORD_0" : 19
                    },
                    "indices" : 20,
                    "material" : 1
                }
            ]
        },
        {
            "name" : "Cube.004",
            "primitives" : [
                {
                    "attributes" : {
                        "POSITION" : 21,
                        "NORMAL" : 22,
                        "TEXCOORD_0" : 23,
                        "COLOR_0" : 24
                    },
                    "indices" : 25,
                    "material" : 0
                }
            ]
        },
        {
            "name" : "Plane",
            "primitives" : [
                {
                    "attributes" : {
                        "POSITION" : 26,
                        "NORMAL" : 27,
                        "TEXCOORD_0" : 28
                    },
                    "indices" : 29,
                    "material" : 2
                }
            ]
        }
    ],
    "textures" : [
        {
            "sampler" : 0,
            "source" : 0
        },
        {
            "sampler" : 0,
            "source" : 0
        },
        {
            "sampler" : 0,
            "source" : 0
        }
    ],
    "images" : [
        {
            "bufferView" : 4,
            "mimeType" : "image/png",
            "name" : "Untitled"
        }
    ],
    "accessors" : [
        {
            "bufferView" : 0,
            "componentType" : 5126,
            "count" : 142,
            "max" : [
                4.957504749298096,
                2.2499303817749023,
                1
            ],
            "min" : [
                -4.957504749298096,
                -1,
                -1
            ],
            "type" : "VEC3"
        },
        {
            "bufferView" : 1,
            "componentType" : 5126,
            "count" : 142,
            "type" : "VEC3"
        },
        {
            "bufferView" : 2,
            "componentType" : 5126,
            "count" : 142,
            "type" : "VEC2"
        },
        {
            "bufferView" : 3,
            "componentType" : 5123,
            "count" : 240,
            "type" : "SCALAR"
        },
        {
            "bufferView" : 5,
            "componentType" : 5126,
            "count" : 56,
            "max" : [
                1,
                1,
                1
            ],
            "min" : [
                -1,
                -1.7324354648590088,
                -1
            ],
            "type" : "VEC3"
        },
        {
            "bufferView" : 6,
            "componentType" : 5126,
            "count" : 56,
            "type" : "VEC3"
        },
        {
            "bufferView" : 7,
            "componentType" : 5126,
            "count" : 56,
            "type" : "VEC2"
        },
        {
            "bufferView" : 8,
            "componentType" : 5123,
            "count" : 84,
            "type" : "SCALAR"
        },
        {
            "bufferView" : 9,
            "componentType" : 5126,
            "count" : 48,
            "max" : [
                1,
                1,
                1
            ],
            "min" : [
                -1,
                -1.7729339599609375,
                -1
            ],
            "type" : "VEC3"
        },
        {
            "bufferView" : 10,
            "componentType" : 5126,
            "count" : 48,
            "type" : "VEC3"
        },
        {
            "bufferView" : 11,
            "componentType" : 5126,
            "count" : 48,
            "type" : "VEC2"
        },
        {
            "bufferView" : 12,
            "componentType" : 5123,
            "count" : 66,
            "type" : "SCALAR"
        },
        {
            "bufferView" : 13,
            "componentType" : 5126,
            "count" : 113,
            "max" : [
                1,
                1,
                3.01455020904541
            ],
            "min" : [
                -1,
                -2.961904525756836,
                -1
            ],
            "type" : "VEC3"
        },
        {
            "bufferView" : 14,
            "componentType" : 5126,
            "count" : 113,
            "type" : "VEC3"
        },
        {
            "bufferView" : 15,
            "componentType" : 5126,
            "count" : 113,
            "type" : "VEC2"
        },
        {
            "bufferView" : 16,
            "componentType" : 5123,
            "count" : 113,
            "normalized" : true,
            "type" : "VEC4"
        },
        {
            "bufferView" : 17,
            "componentType" : 5123,
            "count" : 192,
            "type" : "SCALAR"
        },
        {
            "bufferView" : 18,
            "componentType" : 5126,
            "count" : 448,
            "max" : [
                1,
                0.5117970705032349,
                1
            ],
            "min" : [
                -1,
                -1,
                -1
            ],
            "type" : "VEC3"
        },
        {
            "bufferView" : 19,
            "componentType" : 5126,
            "count" : 448,
            "type" : "VEC3"
        },
        {
            "bufferView" : 20,
            "componentType" : 5126,
            "count" : 448,
            "type" : "VEC2"
        },
        {
            "bufferView" : 21,
            "componentType" : 5123,
            "count" : 756,
            "type" : "SCALAR"
        },
        {
            "bufferView" : 22,
            "componentType" : 5126,
            "count" : 80,
            "max" : [
                0.9531562924385071,
                -0.7423595190048218,
                3.1570005416870117
            ],
            "min" : [
                -0.9531562924385071,
                -2.7628188133239746,
                -1.1424503326416016
            ],
            "type" : "VEC3"
        },
        {
            "bufferView" : 23,
            "componentType" : 5126,
            "count" : 80,
            "type" : "VEC3"
        },
        {
            "bufferView" : 24,
            "componentType" : 5126,
            "count" : 80,
            "type" : "VEC2"
        },
        {
            "bufferView" : 25,
            "componentType" : 5123,
            "count" : 80,
            "normalized" : true,
            "type" : "VEC4"
        },
        {
            "bufferView" : 26,
            "componentType" : 5123,
            "count" : 132,
            "type" : "SCALAR"
        },
        {
            "bufferView" : 27,
            "componentType" : 5126,
            "count" : 32,
            "max" : [
                1.2457823753356934,
                0.3751581013202667,
                1.0602084398269653
            ],
            "min" : [
                -1.2457823753356934,
                -0.7330271601676941,
                -1.4542945623397827
            ],
            "type" : "VEC3"
        },
        {
            "bufferView" : 28,
            "componentType" : 5126,
            "count" : 32,
            "type" : "VEC3"
        },
        {
            "bufferView" : 29,
            "componentType" : 5126,
            "count" : 32,
            "type" : "VEC2"
        },
        {
            "bufferView" : 30,
            "componentType" : 5123,
            "count" : 48,
            "type" : "SCALAR"
        }
    ],
    "bufferViews" : [
        {
            "buffer" : 0,
            "byteLength" : 1704,
            "byteOffset" : 0
        },
        {
            "buffer" : 0,
            "byteLength" : 1704,
            "byteOffset" : 1704
        },
        {
            "buffer" : 0,
            "byteLength" : 1136,
            "byteOffset" : 3408
        },
        {
            "buffer" : 0,
            "byteLength" : 480,
            "byteOffset" : 4544
        },
        {
            "buffer" : 0,
            "byteLength" : 40135,
            "byteOffset" : 5024
        },
        {
            "buffer" : 0,
            "byteLength" : 672,
            "byteOffset" : 45160
        },
        {
            "buffer" : 0,
            "byteLength" : 672,
            "byteOffset" : 45832
        },
        {
            "buffer" : 0,
            "byteLength" : 448,
            "byteOffset" : 46504
        },
        {
            "buffer" : 0,
            "byteLength" : 168,
            "byteOffset" : 46952
        },
        {
            "buffer" : 0,
            "byteLength" : 576,
            "byteOffset" : 47120
        },
        {
            "buffer" : 0,
            "byteLength" : 576,
            "byteOffset" : 47696
        },
        {
            "buffer" : 0,
            "byteLength" : 384,
            "byteOffset" : 48272
        },
        {
            "buffer" : 0,
            "byteLength" : 132,
            "byteOffset" : 48656
        },
        {
            "buffer" : 0,
            "byteLength" : 1356,
            "byteOffset" : 48788
        },
        {
            "buffer" : 0,
            "byteLength" : 1356,
            "byteOffset" : 50144
        },
        {
            "buffer" : 0,
            "byteLength" : 904,
            "byteOffset" : 51500
        },
        {
            "buffer" : 0,
            "byteLength" : 904,
            "byteOffset" : 52404
        },
        {
            "buffer" : 0,
            "byteLength" : 384,
            "byteOffset" : 53308
        },
        {
            "buffer" : 0,
            "byteLength" : 5376,
            "byteOffset" : 53692
        },
        {
            "buffer" : 0,
            "byteLength" : 5376,
            "byteOffset" : 59068
        },
        {
            "buffer" : 0,
            "byteLength" : 3584,
            "byteOffset" : 64444
        },
        {
            "buffer" : 0,
            "byteLength" : 1512,
            "byteOffset" : 68028
        },
        {
            "buffer" : 0,
            "byteLength" : 960,
            "byteOffset" : 69540
        },
        {
            "buffer" : 0,
            "byteLength" : 960,
            "byteOffset" : 70500
        },
        {
            "buffer" : 0,
            "byteLength" : 640,
            "byteOffset" : 71460
        },
        {
            "buffer" : 0,
            "byteLength" : 640,
            "byteOffset" : 72100
        },
        {
            "buffer" : 0,
            "byteLength" : 264,
            "byteOffset" : 72740
        },
        {
            "buffer" : 0,
            "byteLength" : 384,
            "byteOffset" : 73004
        },
        {
            "buffer" : 0,
            "byteLength" : 384,
            "byteOffset" : 73388
        },
        {
            "buffer" : 0,
            "byteLength" : 256,
            "byteOffset" : 73772
        },
        {
            "buffer" : 0,
            "byteLength" : 96,
            "byteOffset" : 74028
        }
    ],
    "samplers" : [
        {
            "magFilter" : 9729,
            "minFilter" : 9987
        }
    ],
    "buffers" : [
        {
            "byteLength" : 74124,
            "uri" : "data:application/octet-stream;base64,"
        }
    ]
}
