{
    "asset" : {
        "generator" : "Khronos glTF Blender I/O v1.7.33",
        "version" : "2.0"
    },
    "scene" : 0,
    "scenes" : [
        {
            "name" : "Scene",
            "nodes" : [
                0,
                1,
                2,
                3
            ]
        }
    ],
    "nodes" : [
        {
            "mesh" : 0,
            "name" : "torso",
            "scale" : [
                0.40200382471084595,
                0.40200382471084595,
                0.32212120294570923
            ],
            "translation" : [
                0,
                2.021110773086548,
                0
            ]
        },
        {
            "mesh" : 1,
            "name" : "head",
            "scale" : [
                0.40200382471084595,
                0.40200382471084595,
                0.40200382471084595
            ],
            "translation" : [
                0,
                3.4937126636505127,
                0
            ]
        },
        {
            "mesh" : 2,
            "name" : "head2",
            "scale" : [
                0.40200382471084595,
                0.40200382471084595,
                0.40200382471084595
            ],
            "translation" : [
                0,
                3.4937126636505127,
                0
            ]
        },
        {
            "mesh" : 3,
            "name" : "legs",
            "scale" : [
                0.40200382471084595,
                0.40200382471084595,
                0.16524480283260345
            ],
            "translation" : [
                0,
                1.2245948314666748,
                0
            ]
        }
    ],
    "materials" : [
        {
            "doubleSided" : true,
            "name" : "Skin",
            "pbrMetallicRoughness" : {
                "baseColorTexture" : {
                    "index" : 0
                },
                "metallicFactor" : 0,
                "roughnessFactor" : 0.5
            }
        }
    ],
    "meshes" : [
        {
            "name" : "Cube",
            "primitives" : [
                {
                    "attributes" : {
                        "POSITION" : 0,
                        "NORMAL" : 1,
                        "TEXCOORD_0" : 2
                    },
                    "indices" : 3,
                    "material" : 0
                }
            ]
        },
        {
            "name" : "Cube.001",
            "primitives" : [
                {
                    "attributes" : {
                        "POSITION" : 4,
                        "NORMAL" : 5,
                        "TEXCOORD_0" : 6
                    },
                    "indices" : 7,
                    "material" : 0
                }
            ]
        },
        {
            "name" : "Cube.002",
            "primitives" : [
                {
                    "attributes" : {
                        "POSITION" : 8,
                        "NORMAL" : 9,
                        "TEXCOORD_0" : 10
                    },
                    "indices" : 11,
                    "material" : 0
                }
            ]
        },
        {
            "name" : "Cube.003",
            "primitives" : [
                {
                    "attributes" : {
                        "POSITION" : 12,
                        "NORMAL" : 13,
                        "TEXCOORD_0" : 14,
                        "COLOR_0" : 15
                    },
                    "indices" : 16,
                    "material" : 0
                }
            ]
        }
    ],
    "textures" : [
        {
            "sampler" : 0,
            "source" : 0
        }
    ],
    "images" : [
        {
            "bufferView" : 4,
            "mimeType" : "image/png",
            "name" : "Untitled"
        }
    ],
    "accessors" : [
        {
            "bufferView" : 0,
            "componentType" : 5126,
            "count" : 142,
            "max" : [
                4.957504749298096,
                2.2499303817749023,
                1
            ],
            "min" : [
                -4.957504749298096,
                -1,
                -1
            ],
            "type" : "VEC3"
        },
        {
            "bufferView" : 1,
            "componentType" : 5126,
            "count" : 142,
            "type" : "VEC3"
        },
        {
            "bufferView" : 2,
            "componentType" : 5126,
            "count" : 142,
            "type" : "VEC2"
        },
        {
            "bufferView" : 3,
            "componentType" : 5123,
            "count" : 240,
            "type" : "SCALAR"
        },
        {
            "bufferView" : 5,
            "componentType" : 5126,
            "count" : 56,
            "max" : [
                1,
                1,
                1
            ],
            "min" : [
                -1,
                -1.7324354648590088,
                -1
            ],
            "type" : "VEC3"
        },
        {
            "bufferView" : 6,
            "componentType" : 5126,
            "count" : 56,
            "type" : "VEC3"
        },
        {
            "bufferView" : 7,
            "componentType" : 5126,
            "count" : 56,
            "type" : "VEC2"
        },
        {
            "bufferView" : 8,
            "componentType" : 5123,
            "count" : 84,
            "type" : "SCALAR"
        },
        {
            "bufferView" : 9,
            "componentType" : 5126,
            "count" : 48,
            "max" : [
                1,
                1,
                1
            ],
            "min" : [
                -1,
                -1.7729339599609375,
                -1
            ],
            "type" : "VEC3"
        },
        {
            "bufferView" : 10,
            "componentType" : 5126,
            "count" : 48,
            "type" : "VEC3"
        },
        {
            "bufferView" : 11,
            "componentType" : 5126,
            "count" : 48,
            "type" : "VEC2"
        },
        {
            "bufferView" : 12,
            "componentType" : 5123,
            "count" : 66,
            "type" : "SCALAR"
        },
        {
            "bufferView" : 13,
            "componentType" : 5126,
            "count" : 115,
            "max" : [
                1,
                1,
                3.01455020904541
            ],
            "min" : [
                -1,
                -2.961904525756836,
                -1
            ],
            "type" : "VEC3"
        },
        {
            "bufferView" : 14,
            "componentType" : 5126,
            "count" : 115,
            "type" : "VEC3"
        },
        {
            "bufferView" : 15,
            "componentType" : 5126,
            "count" : 115,
            "type" : "VEC2"
        },
        {
            "bufferView" : 16,
            "componentType" : 5123,
            "count" : 115,
            "normalized" : true,
            "type" : "VEC4"
        },
        {
            "bufferView" : 17,
            "componentType" : 5123,
            "count" : 192,
            "type" : "SCALAR"
        }
    ],
    "bufferViews" : [
        {
            "buffer" : 0,
            "byteLength" : 1704,
            "byteOffset" : 0
        },
        {
            "buffer" : 0,
            "byteLength" : 1704,
            "byteOffset" : 1704
        },
        {
            "buffer" : 0,
            "byteLength" : 1136,
            "byteOffset" : 3408
        },
        {
            "buffer" : 0,
            "byteLength" : 480,
            "byteOffset" : 4544
        },
        {
            "buffer" : 0,
            "byteLength" : 40135,
            "byteOffset" : 5024
        },
        {
            "buffer" : 0,
            "byteLength" : 672,
            "byteOffset" : 45160
        },
        {
            "buffer" : 0,
            "byteLength" : 672,
            "byteOffset" : 45832
        },
        {
            "buffer" : 0,
            "byteLength" : 448,
            "byteOffset" : 46504
        },
        {
            "buffer" : 0,
            "byteLength" : 168,
            "byteOffset" : 46952
        },
        {
            "buffer" : 0,
            "byteLength" : 576,
            "byteOffset" : 47120
        },
        {
            "buffer" : 0,
            "byteLength" : 576,
            "byteOffset" : 47696
        },
        {
            "buffer" : 0,
            "byteLength" : 384,
            "byteOffset" : 48272
        },
        {
            "buffer" : 0,
            "byteLength" : 132,
            "byteOffset" : 48656
        },
        {
            "buffer" : 0,
            "byteLength" : 1380,
            "byteOffset" : 48788
        },
        {
            "buffer" : 0,
            "byteLength" : 1380,
            "byteOffset" : 50168
        },
        {
            "buffer" : 0,
            "byteLength" : 920,
            "byteOffset" : 51548
        },
        {
            "buffer" : 0,
            "byteLength" : 920,
            "byteOffset" : 52468
        },
        {
            "buffer" : 0,
            "byteLength" : 384,
            "byteOffset" : 53388
        }
    ],
    "samplers" : [
        {
            "magFilter" : 9729,
            "minFilter" : 9987
        }
    ],
    "buffers" : [
        {
            "byteLength" : 53772,
            "uri" : "data:application/octet-stream;base64,"
        }
    ]
}
