{
    "asset" : {
        "generator" : "Khronos glTF Blender I/O v1.7.33",
        "version" : "2.0"
    },
    "scene" : 0,
    "scenes" : [
        {
            "name" : "Scene",
            "nodes" : [
                0,
                1,
                2,
                3,
                4,
                5,
                6
            ]
        }
    ],
    "nodes" : [
        {
            "mesh" : 0,
            "name" : "torso",
            "scale" : [
                0.40200382471084595,
                0.40200382471084595,
                0.32212120294570923
            ],
            "translation" : [
                0,
                2.021110773086548,
                0
            ]
        },
        {
            "mesh" : 1,
            "name" : "head",
            "scale" : [
                0.40200382471084595,
                0.40200382471084595,
                0.40200382471084595
            ],
            "translation" : [
                0,
                3.4937126636505127,
                0
            ]
        },
        {
            "mesh" : 2,
            "name" : "head2",
            "scale" : [
                0.40200382471084595,
                0.40200382471084595,
                0.40200382471084595
            ],
            "translation" : [
                0,
                3.4937126636505127,
                0
            ]
        },
        {
            "mesh" : 3,
            "name" : "legs",
            "scale" : [
                0.40200382471084595,
                0.40200382471084595,
                0.16524480283260345
            ],
            "translation" : [
                0,
                1.2245948314666748,
                0
            ]
        },
        {
            "mesh" : 4,
            "name" : "hat1",
            "translation" : [
                0.0006894767284393311,
                4.8664445877075195,
                0.0032015442848205566
            ]
        },
        {
            "mesh" : 5,
            "name" : "boots",
            "scale" : [
                0.43876639008522034,
                0.43876639008522034,
                0.18035615980625153
            ],
            "translation" : [
                0,
                1.2245948314666748,
                0
            ]
        },
        {
            "mesh" : 6,
            "name" : "cape"
        }
    ],
    "materials" : [
        {
            "doubleSided" : true,
            "name" : "Torso",
            "pbrMetallicRoughness" : {
                "baseColorTexture" : {
                    "index" : 0
                },
                "metallicFactor" : 0,
                "roughnessFactor" : 0.5
            }
        },
        {
            "doubleSided" : true,
            "name" : "Face",
            "pbrMetallicRoughness" : {
                "baseColorTexture" : {
                    "index" : 1
                },
                "metallicFactor" : 0,
                "roughnessFactor" : 0.5
            }
        },
        {
            "doubleSided" : true,
            "name" : "Face2",
            "pbrMetallicRoughness" : {
                "baseColorTexture" : {
                    "index" : 2
                },
                "metallicFactor" : 0,
                "roughnessFactor" : 0.5
            }
        },
        {
            "doubleSided" : true,
            "name" : "Legs",
            "pbrMetallicRoughness" : {
                "baseColorTexture" : {
                    "index" : 3
                },
                "metallicFactor" : 0,
                "roughnessFactor" : 0.5
            }
        },
        {
            "doubleSided" : true,
            "name" : "Hat",
            "pbrMetallicRoughness" : {
                "baseColorTexture" : {
                    "index" : 4
                },
                "metallicFactor" : 0,
                "roughnessFactor" : 0.5
            }
        },
        {
            "doubleSided" : true,
            "name" : "Boots",
            "pbrMetallicRoughness" : {
                "baseColorTexture" : {
                    "index" : 5
                },
                "metallicFactor" : 0,
                "roughnessFactor" : 0.5
            }
        },
        {
            "doubleSided" : true,
            "name" : "Cape",
            "pbrMetallicRoughness" : {
                "baseColorTexture" : {
                    "index" : 6
                },
                "metallicFactor" : 0,
                "roughnessFactor" : 0.5
            }
        }
    ],
    "meshes" : [
        {
            "name" : "Cube",
            "primitives" : [
                {
                    "attributes" : {
                        "POSITION" : 0,
                        "NORMAL" : 1,
                        "TEXCOORD_0" : 2
                    },
                    "indices" : 3,
                    "material" : 0
                }
            ]
        },
        {
            "name" : "Cube.001",
            "primitives" : [
                {
                    "attributes" : {
                        "POSITION" : 4,
                        "NORMAL" : 5,
                        "TEXCOORD_0" : 6
                    },
                    "indices" : 7,
                    "material" : 1
                }
            ]
        },
        {
            "name" : "Cube.002",
            "primitives" : [
                {
                    "attributes" : {
                        "POSITION" : 8,
                        "NORMAL" : 9,
                        "TEXCOORD_0" : 10
                    },
                    "indices" : 11,
                    "material" : 2
                }
            ]
        },
        {
            "name" : "Cube.003",
            "primitives" : [
                {
                    "attributes" : {
                        "POSITION" : 12,
                        "NORMAL" : 13,
                        "TEXCOORD_0" : 14,
                        "COLOR_0" : 15
                    },
                    "indices" : 16,
                    "material" : 3
                }
            ]
        },
        {
            "name" : "Cylinder",
            "primitives" : [
                {
                    "attributes" : {
                        "POSITION" : 17,
                        "NORMAL" : 18,
                        "TEXCOORD_0" : 19
                    },
                    "indices" : 20,
                    "material" : 4
                }
            ]
        },
        {
            "name" : "Cube.004",
            "primitives" : [
                {
                    "attributes" : {
                        "POSITION" : 21,
                        "NORMAL" : 22,
                        "TEXCOORD_0" : 23,
                        "COLOR_0" : 24
                    },
                    "indices" : 25,
                    "material" : 5
                }
            ]
        },
        {
            "name" : "Plane",
            "primitives" : [
                {
                    "attributes" : {
                        "POSITION" : 26,
                        "NORMAL" : 27,
                        "TEXCOORD_0" : 28
                    },
                    "indices" : 29,
                    "material" : 6
                }
            ]
        }
    ],
    "textures" : [
        {
            "sampler" : 0,
            "source" : 0
        },
        {
            "sampler" : 0,
            "source" : 1
        },
        {
            "sampler" : 0,
            "source" : 2
        },
        {
            "sampler" : 0,
            "source" : 3
        },
        {
            "sampler" : 0,
            "source" : 4
        },
        {
            "sampler" : 0,
            "source" : 5
        },
        {
            "sampler" : 0,
            "source" : 6
        }
    ],
    "images" : [
        {
            "bufferView" : 4,
            "mimeType" : "image/png",
            "name" : "Torso"
        },
        {
            "bufferView" : 9,
            "mimeType" : "image/png",
            "name" : "Face"
        },
        {
            "bufferView" : 14,
            "mimeType" : "image/png",
            "name" : "Face2"
        },
        {
            "bufferView" : 20,
            "mimeType" : "image/png",
            "name" : "Legs"
        },
        {
            "bufferView" : 25,
            "mimeType" : "image/png",
            "name" : "Hat"
        },
        {
            "bufferView" : 31,
            "mimeType" : "image/png",
            "name" : "Boots"
        },
        {
            "bufferView" : 36,
            "mimeType" : "image/png",
            "name" : "Cape"
        }
    ],
    "accessors" : [
        {
            "bufferView" : 0,
            "componentType" : 5126,
            "count" : 142,
            "max" : [
                4.957504749298096,
                2.2499303817749023,
                1
            ],
            "min" : [
                -4.957504749298096,
                -1,
                -1
            ],
            "type" : "VEC3"
        },
        {
            "bufferView" : 1,
            "componentType" : 5126,
            "count" : 142,
            "type" : "VEC3"
        },
        {
            "bufferView" : 2,
            "componentType" : 5126,
            "count" : 142,
            "type" : "VEC2"
        },
        {
            "bufferView" : 3,
            "componentType" : 5123,
            "count" : 240,
            "type" : "SCALAR"
        },
        {
            "bufferView" : 5,
            "componentType" : 5126,
            "count" : 56,
            "max" : [
                1,
                1,
                1
            ],
            "min" : [
                -1,
                -1.7324354648590088,
                -1
            ],
            "type" : "VEC3"
        },
        {
            "bufferView" : 6,
            "componentType" : 5126,
            "count" : 56,
            "type" : "VEC3"
        },
        {
            "bufferView" : 7,
            "componentType" : 5126,
            "count" : 56,
            "type" : "VEC2"
        },
        {
            "bufferView" : 8,
            "componentType" : 5123,
            "count" : 84,
            "type" : "SCALAR"
        },
        {
            "bufferView" : 10,
            "componentType" : 5126,
            "count" : 48,
            "max" : [
                1,
                1,
                1
            ],
            "min" : [
                -1,
                -1.7729339599609375,
                -1
            ],
            "type" : "VEC3"
        },
        {
            "bufferView" : 11,
            "componentType" : 5126,
            "count" : 48,
            "type" : "VEC3"
        },
        {
            "bufferView" : 12,
            "componentType" : 5126,
            "count" : 48,
            "type" : "VEC2"
        },
        {
            "bufferView" : 13,
            "componentType" : 5123,
            "count" : 66,
            "type" : "SCALAR"
        },
        {
            "bufferView" : 15,
            "componentType" : 5126,
            "count" : 113,
            "max" : [
                1,
                1,
                3.01455020904541
            ],
            "min" : [
                -1,
                -2.961904525756836,
                -1
            ],
            "type" : "VEC3"
        },
        {
            "bufferView" : 16,
            "componentType" : 5126,
            "count" : 113,
            "type" : "VEC3"
        },
        {
            "bufferView" : 17,
            "componentType" : 5126,
            "count" : 113,
            "type" : "VEC2"
        },
        {
            "bufferView" : 18,
            "componentType" : 5123,
            "count" : 113,
            "normalized" : true,
            "type" : "VEC4"
        },
        {
            "bufferView" : 19,
            "componentType" : 5123,
            "count" : 192,
            "type" : "SCALAR"
        },
        {
            "bufferView" : 21,
            "componentType" : 5126,
            "count" : 448,
            "max" : [
                1,
                0.5117970705032349,
                1
            ],
            "min" : [
                -1,
                -1,
                -1
            ],
            "type" : "VEC3"
        },
        {
            "bufferView" : 22,
            "componentType" : 5126,
            "count" : 448,
            "type" : "VEC3"
        },
        {
            "bufferView" : 23,
            "componentType" : 5126,
            "count" : 448,
            "type" : "VEC2"
        },
        {
            "bufferView" : 24,
            "componentType" : 5123,
            "count" : 756,
            "type" : "SCALAR"
        },
        {
            "bufferView" : 26,
            "componentType" : 5126,
            "count" : 80,
            "max" : [
                0.9531562924385071,
                -0.7423595190048218,
                3.1570005416870117
            ],
            "min" : [
                -0.9531562924385071,
                -2.7628188133239746,
                -1.1424503326416016
            ],
            "type" : "VEC3"
        },
        {
            "bufferView" : 27,
            "componentType" : 5126,
            "count" : 80,
            "type" : "VEC3"
        },
        {
            "bufferView" : 28,
            "componentType" : 5126,
            "count" : 80,
            "type" : "VEC2"
        },
        {
            "bufferView" : 29,
            "componentType" : 5123,
            "count" : 80,
            "normalized" : true,
            "type" : "VEC4"
        },
        {
            "bufferView" : 30,
            "componentType" : 5123,
            "count" : 132,
            "type" : "SCALAR"
        },
        {
            "bufferView" : 32,
            "componentType" : 5126,
            "count" : 32,
            "max" : [
                1.2399653196334839,
                2.967867851257324,
                0.32984620332717896
            ],
            "min" : [
                -1.2399653196334839,
                0.4890817403793335,
                -0.8503222465515137
            ],
            "type" : "VEC3"
        },
        {
            "bufferView" : 33,
            "componentType" : 5126,
            "count" : 32,
            "type" : "VEC3"
        },
        {
            "bufferView" : 34,
            "componentType" : 5126,
            "count" : 32,
            "type" : "VEC2"
        },
        {
            "bufferView" : 35,
            "componentType" : 5123,
            "count" : 48,
            "type" : "SCALAR"
        }
    ],
    "bufferViews" : [
        {
            "buffer" : 0,
            "byteLength" : 1704,
            "byteOffset" : 0
        },
        {
            "buffer" : 0,
            "byteLength" : 1704,
            "byteOffset" : 1704
        },
        {
            "buffer" : 0,
            "byteLength" : 1136,
            "byteOffset" : 3408
        },
        {
            "buffer" : 0,
            "byteLength" : 480,
            "byteOffset" : 4544
        },
        {
            "buffer" : 0,
            "byteLength" : 62501,
            "byteOffset" : 5024
        },
        {
            "buffer" : 0,
            "byteLength" : 672,
            "byteOffset" : 67528
        },
        {
            "buffer" : 0,
            "byteLength" : 672,
            "byteOffset" : 68200
        },
        {
            "buffer" : 0,
            "byteLength" : 448,
            "byteOffset" : 68872
        },
        {
            "buffer" : 0,
            "byteLength" : 168,
            "byteOffset" : 69320
        },
        {
            "buffer" : 0,
            "byteLength" : 4431,
            "byteOffset" : 69488
        },
        {
            "buffer" : 0,
            "byteLength" : 576,
            "byteOffset" : 73920
        },
        {
            "buffer" : 0,
            "byteLength" : 576,
            "byteOffset" : 74496
        },
        {
            "buffer" : 0,
            "byteLength" : 384,
            "byteOffset" : 75072
        },
        {
            "buffer" : 0,
            "byteLength" : 132,
            "byteOffset" : 75456
        },
        {
            "buffer" : 0,
            "byteLength" : 4431,
            "byteOffset" : 75588
        },
        {
            "buffer" : 0,
            "byteLength" : 1356,
            "byteOffset" : 80020
        },
        {
            "buffer" : 0,
            "byteLength" : 1356,
            "byteOffset" : 81376
        },
        {
            "buffer" : 0,
            "byteLength" : 904,
            "byteOffset" : 82732
        },
        {
            "buffer" : 0,
            "byteLength" : 904,
            "byteOffset" : 83636
        },
        {
            "buffer" : 0,
            "byteLength" : 384,
            "byteOffset" : 84540
        },
        {
            "buffer" : 0,
            "byteLength" : 4432,
            "byteOffset" : 84924
        },
        {
            "buffer" : 0,
            "byteLength" : 5376,
            "byteOffset" : 89356
        },
        {
            "buffer" : 0,
            "byteLength" : 5376,
            "byteOffset" : 94732
        },
        {
            "buffer" : 0,
            "byteLength" : 3584,
            "byteOffset" : 100108
        },
        {
            "buffer" : 0,
            "byteLength" : 1512,
            "byteOffset" : 103692
        },
        {
            "buffer" : 0,
            "byteLength" : 4430,
            "byteOffset" : 105204
        },
        {
            "buffer" : 0,
            "byteLength" : 960,
            "byteOffset" : 109636
        },
        {
            "buffer" : 0,
            "byteLength" : 960,
            "byteOffset" : 110596
        },
        {
            "buffer" : 0,
            "byteLength" : 640,
            "byteOffset" : 111556
        },
        {
            "buffer" : 0,
            "byteLength" : 640,
            "byteOffset" : 112196
        },
        {
            "buffer" : 0,
            "byteLength" : 264,
            "byteOffset" : 112836
        },
        {
            "buffer" : 0,
            "byteLength" : 4432,
            "byteOffset" : 113100
        },
        {
            "buffer" : 0,
            "byteLength" : 384,
            "byteOffset" : 117532
        },
        {
            "buffer" : 0,
            "byteLength" : 384,
            "byteOffset" : 117916
        },
        {
            "buffer" : 0,
            "byteLength" : 256,
            "byteOffset" : 118300
        },
        {
            "buffer" : 0,
            "byteLength" : 96,
            "byteOffset" : 118556
        },
        {
            "buffer" : 0,
            "byteLength" : 4430,
            "byteOffset" : 118652
        }
    ],
    "samplers" : [
        {
            "magFilter" : 9729,
            "minFilter" : 9987
        }
    ],
    "buffers" : [
        {
            "byteLength" : 123084,
            "uri" : "data:application/octet-stream;base64,"
        }
    ]
}
